<svg width="174" height="50" viewBox="0 0 174 50" fill="none" xmlns="http://www.w3.org/2000/svg">
<g clip-path="url(#clip0_8_48)">
<path d="M19.0625 1C16.5 1.15234 14.6914 2.05859 13.6875 3.71875L7.09375 15.1562L11.5 17.6875L0.156247 19.0938L3.625 21.0938L0.593747 26.25C-0.0429721 27.3516 -0.410159 29.8203 0.781247 31.625C1.2539 32.3398 2.77734 35.0664 4.125 37.4688C5.28906 39.543 6.3789 41.4961 6.875 42.3125C7.45312 43.0977 8.02344 43.8711 8.09375 43.9688C8.09765 43.9688 6.8164 41.8164 9.09375 37.875L15 27.6562L18.4687 29.6562L14.0312 19.1562L18.4375 21.6875L27.875 5.34375C29.7852 1.77734 31.3125 1.16016 31.6562 1.0625C31.8281 1.0625 31.9687 1.0625 32.125 1.0625C31.9922 1.05859 31.8555 1.02734 31.7187 1.03125C31.6367 1.03125 31.5508 1.02734 31.4687 1.03125C30.0742 1.05859 27.6641 1.05078 24.75 1.03125C23.0195 1.01953 21.1211 1.00391 19.0625 1ZM32.9687 1.15625C32.3711 1.44531 31.0781 2.39453 29.5 5.34375L25.875 11.625L28 15.3438L24.5312 17.375L35.8437 18.75L31.4375 21.2812L37.1562 31.1875H44.5937C47.7227 31.1875 49.2773 30.1797 49.9375 29.5312C50.1211 28.3047 49.9336 27.168 49.375 26.1562L42.7812 14.75L38.375 17.2812L42.8437 6.78125L39.375 8.78125L36.4062 3.59375C35.9023 2.71875 34.5781 1.53516 32.9687 1.15625ZM32.1562 28.7188L25.2812 37.8438V32.75H13.8437L10.125 39.1875C8.5625 41.8984 8.67578 43.7578 8.90625 44.6562C9.8789 45.4297 10.9375 45.8516 12.0937 45.875H25.2812V40.75L32.1562 49.875V45.875L38.125 45.9062C39.3984 45.9062 41.7187 45.0312 42.6875 43.0938C43.0703 42.3281 44.6875 39.6172 46.0937 37.25C47.3086 35.2031 48.4453 33.2773 48.9062 32.4375C49.3008 31.543 49.668 30.6719 49.7187 30.5625C49.7187 30.5625 48.5195 32.75 43.9687 32.75H32.1562V28.7188Z" fill="black"/>
</g>
<path d="M72.656 33H68.12L67.304 29.544C67.272 29.416 67.216 29.2 67.136 28.896C67.072 28.576 66.992 28.344 66.896 28.2C66.8 28.04 66.664 27.936 66.488 27.888C66.04 27.904 65.384 27.912 64.52 27.912V33H60.2V19.44C62.136 19.296 63.944 19.224 65.624 19.224C67.144 19.224 68.376 19.352 69.32 19.608C70.264 19.848 70.968 20.272 71.432 20.88C71.912 21.472 72.152 22.288 72.152 23.328C72.152 24.304 71.928 25.072 71.48 25.632C71.032 26.176 70.312 26.504 69.32 26.616V26.76C69.88 26.808 70.344 26.992 70.712 27.312C71.096 27.616 71.352 28.008 71.48 28.488L72.656 33ZM64.52 25.2C64.664 25.216 64.944 25.224 65.36 25.224C66.592 25.224 67.312 25.12 67.52 24.912C67.712 24.72 67.808 24.272 67.808 23.568C67.808 22.912 67.632 22.464 67.28 22.224C66.944 21.984 66.384 21.864 65.6 21.864C65.424 21.864 65.064 21.88 64.52 21.912V25.2ZM80.6019 30.12C81.0019 30.12 81.7459 30.08 82.8339 30C82.9779 30 83.2419 29.984 83.6259 29.952L83.9859 32.424C82.7539 33 81.1539 33.288 79.1859 33.288C77.3459 33.288 75.9299 32.824 74.9379 31.896C73.9619 30.968 73.4739 29.568 73.4739 27.696C73.4739 26.736 73.5939 25.808 73.8339 24.912C74.0899 24.016 74.3779 23.392 74.6979 23.04C75.0339 22.688 75.6579 22.384 76.5699 22.128C77.4819 21.872 78.3859 21.744 79.2819 21.744C80.7219 21.744 81.8019 22 82.5219 22.512C83.2419 23.024 83.7139 23.736 83.9379 24.648C84.1619 25.544 84.2739 26.752 84.2739 28.272C83.1859 28.336 82.1219 28.368 81.0819 28.368H77.6739C77.6739 28.88 77.7779 29.264 77.9859 29.52C78.2099 29.776 78.5219 29.944 78.9219 30.024C79.3219 30.088 79.8819 30.12 80.6019 30.12ZM77.9139 24.6C77.8179 24.648 77.7459 24.856 77.6979 25.224C77.6499 25.592 77.6179 26.008 77.6019 26.472H78.8499C79.6019 26.472 80.1459 26.464 80.4819 26.448C80.4819 25.68 80.3699 25.136 80.1459 24.816C79.9379 24.496 79.5699 24.336 79.0419 24.336C78.6099 24.336 78.2339 24.424 77.9139 24.6ZM95.0064 32.664C93.7104 33.096 92.2624 33.312 90.6624 33.312C88.8704 33.312 87.5264 32.864 86.6304 31.968C85.7504 31.056 85.3104 29.64 85.3104 27.72C85.3104 26.776 85.4384 25.848 85.6944 24.936C85.9504 24.008 86.2224 23.384 86.5104 23.064C86.8464 22.696 87.5024 22.384 88.4784 22.128C89.4704 21.872 90.4944 21.744 91.5504 21.744C92.6544 21.744 93.7664 21.84 94.8864 22.032C94.8544 22.432 94.7984 22.904 94.7184 23.448C94.6544 23.976 94.5824 24.448 94.5024 24.864C93.5104 24.8 92.5744 24.768 91.6944 24.768C90.8304 24.768 90.2784 24.816 90.0384 24.912C89.9104 24.96 89.7904 25.288 89.6784 25.896C89.5824 26.504 89.5344 27.072 89.5344 27.6C89.5344 28.304 89.6304 28.848 89.8224 29.232C90.0304 29.6 90.3504 29.856 90.7824 30C91.2144 30.144 91.7984 30.216 92.5344 30.216C92.8544 30.216 93.5584 30.184 94.6464 30.12L95.0064 32.664ZM107.806 21.96L104.926 31.2C104.366 32.976 103.862 34.264 103.414 35.064C102.966 35.88 102.518 36.448 102.07 36.768C101.814 36.944 101.406 37.08 100.846 37.176C100.302 37.272 99.7104 37.32 99.0704 37.32C98.1104 37.32 97.3424 37.232 96.7664 37.056C96.7504 36.672 96.7664 36.2 96.8144 35.64C96.8624 35.096 96.9264 34.632 97.0064 34.248C97.6784 34.28 98.3344 34.296 98.9744 34.296C99.4544 34.296 99.8144 34.288 100.054 34.272C100.294 33.808 100.518 33.32 100.726 32.808L99.0704 32.712L95.3744 21.96H99.7184L101.638 29.688L101.662 30.144H101.734L103.462 21.96H107.806Z" fill="black"/>
<mask id="path-3-outside-1_8_48" maskUnits="userSpaceOnUse" x="110" y="17" width="48" height="19" fill="black">
<rect fill="white" x="110" y="17" width="48" height="19"/>
<path d="M112.08 19.32H122.04V22.2H116.4V24.696H121.152V27.288H116.4V30.072H122.016V33H112.08V19.32ZM130.232 33L129.848 31.488C129.112 32.688 128.088 33.288 126.776 33.288C125.704 33.288 124.824 32.992 124.136 32.4C123.464 31.792 123.128 30.944 123.128 29.856C123.128 29.184 123.32 28.6 123.704 28.104C124.104 27.592 124.648 27.232 125.336 27.024C126.232 26.768 127.616 26.624 129.488 26.592C129.488 25.536 129.44 24.976 129.344 24.912C129.264 24.848 129.008 24.816 128.576 24.816C128.304 24.816 127.928 24.832 127.448 24.864C126.68 24.896 125.64 24.984 124.328 25.128C124.2 24.264 124.104 23.336 124.04 22.344C124.888 22.168 125.776 22.024 126.704 21.912C127.632 21.784 128.464 21.72 129.2 21.72C130.48 21.72 131.44 21.936 132.08 22.368C132.72 22.784 133.136 23.336 133.328 24.024C133.52 24.712 133.608 25.584 133.592 26.64L133.568 30.168L133.64 33H130.232ZM128.168 30.6C128.584 30.6 129.024 30.52 129.488 30.36V28.584H129.296C128.112 28.584 127.456 28.648 127.328 28.776C127.248 28.856 127.184 28.976 127.136 29.136C127.104 29.296 127.088 29.448 127.088 29.592C127.088 29.976 127.176 30.24 127.352 30.384C127.528 30.528 127.8 30.6 128.168 30.6ZM142.285 21.72C142.493 21.72 142.709 21.744 142.933 21.792C143.173 21.84 143.349 21.896 143.461 21.96C143.461 22.312 143.421 22.896 143.341 23.712C143.261 24.512 143.189 25.08 143.125 25.416C142.965 25.4 142.669 25.392 142.237 25.392C141.229 25.392 140.333 25.448 139.549 25.56V33H135.445V21.96H138.877L139.357 23.736H139.381C139.845 23.128 140.341 22.64 140.869 22.272C141.397 21.904 141.869 21.72 142.285 21.72ZM155.219 22.656C155.363 22.832 155.467 23.272 155.531 23.976C155.611 24.68 155.651 25.752 155.651 27.192V33H151.547V27.24V26.256C151.547 25.744 151.507 25.424 151.427 25.296C151.299 25.136 151.003 25.056 150.539 25.056C150.315 25.056 150.147 25.064 150.035 25.08C149.587 25.096 149.123 25.2 148.643 25.392V33H144.539V21.96H147.875L148.331 23.808C149.483 22.416 150.859 21.72 152.459 21.72C153.035 21.72 153.571 21.8 154.067 21.96C154.579 22.12 154.963 22.352 155.219 22.656Z"/>
</mask>
<path d="M112.08 19.32H122.04V22.2H116.4V24.696H121.152V27.288H116.4V30.072H122.016V33H112.08V19.32ZM130.232 33L129.848 31.488C129.112 32.688 128.088 33.288 126.776 33.288C125.704 33.288 124.824 32.992 124.136 32.4C123.464 31.792 123.128 30.944 123.128 29.856C123.128 29.184 123.32 28.6 123.704 28.104C124.104 27.592 124.648 27.232 125.336 27.024C126.232 26.768 127.616 26.624 129.488 26.592C129.488 25.536 129.44 24.976 129.344 24.912C129.264 24.848 129.008 24.816 128.576 24.816C128.304 24.816 127.928 24.832 127.448 24.864C126.68 24.896 125.64 24.984 124.328 25.128C124.2 24.264 124.104 23.336 124.04 22.344C124.888 22.168 125.776 22.024 126.704 21.912C127.632 21.784 128.464 21.72 129.2 21.72C130.48 21.72 131.44 21.936 132.08 22.368C132.72 22.784 133.136 23.336 133.328 24.024C133.52 24.712 133.608 25.584 133.592 26.64L133.568 30.168L133.64 33H130.232ZM128.168 30.6C128.584 30.6 129.024 30.52 129.488 30.36V28.584H129.296C128.112 28.584 127.456 28.648 127.328 28.776C127.248 28.856 127.184 28.976 127.136 29.136C127.104 29.296 127.088 29.448 127.088 29.592C127.088 29.976 127.176 30.24 127.352 30.384C127.528 30.528 127.8 30.6 128.168 30.6ZM142.285 21.72C142.493 21.72 142.709 21.744 142.933 21.792C143.173 21.84 143.349 21.896 143.461 21.96C143.461 22.312 143.421 22.896 143.341 23.712C143.261 24.512 143.189 25.08 143.125 25.416C142.965 25.4 142.669 25.392 142.237 25.392C141.229 25.392 140.333 25.448 139.549 25.56V33H135.445V21.96H138.877L139.357 23.736H139.381C139.845 23.128 140.341 22.64 140.869 22.272C141.397 21.904 141.869 21.72 142.285 21.72ZM155.219 22.656C155.363 22.832 155.467 23.272 155.531 23.976C155.611 24.68 155.651 25.752 155.651 27.192V33H151.547V27.24V26.256C151.547 25.744 151.507 25.424 151.427 25.296C151.299 25.136 151.003 25.056 150.539 25.056C150.315 25.056 150.147 25.064 150.035 25.08C149.587 25.096 149.123 25.2 148.643 25.392V33H144.539V21.96H147.875L148.331 23.808C149.483 22.416 150.859 21.72 152.459 21.72C153.035 21.72 153.571 21.8 154.067 21.96C154.579 22.12 154.963 22.352 155.219 22.656Z" fill="white"/>
<path d="M112.08 19.32V17.32H110.08V19.32H112.08ZM122.04 19.32H124.04V17.32H122.04V19.32ZM122.04 22.2V24.2H124.04V22.2H122.04ZM116.4 22.2V20.2H114.4V22.2H116.4ZM116.4 24.696H114.4V26.696H116.4V24.696ZM121.152 24.696H123.152V22.696H121.152V24.696ZM121.152 27.288V29.288H123.152V27.288H121.152ZM116.4 27.288V25.288H114.4V27.288H116.4ZM116.4 30.072H114.4V32.072H116.4V30.072ZM122.016 30.072H124.016V28.072H122.016V30.072ZM122.016 33V35H124.016V33H122.016ZM112.08 33H110.08V35H112.08V33ZM112.08 21.32H122.04V17.32H112.08V21.32ZM120.04 19.32V22.2H124.04V19.32H120.04ZM122.04 20.2H116.4V24.2H122.04V20.2ZM114.4 22.2V24.696H118.4V22.2H114.4ZM116.4 26.696H121.152V22.696H116.4V26.696ZM119.152 24.696V27.288H123.152V24.696H119.152ZM121.152 25.288H116.4V29.288H121.152V25.288ZM114.4 27.288V30.072H118.4V27.288H114.4ZM116.4 32.072H122.016V28.072H116.4V32.072ZM120.016 30.072V33H124.016V30.072H120.016ZM122.016 31H112.08V35H122.016V31ZM114.08 33V19.32H110.08V33H114.08ZM130.232 33L128.293 33.4923L128.676 35H130.232V33ZM129.848 31.488L131.786 30.9957L130.62 26.4036L128.143 30.4423L129.848 31.488ZM124.136 32.4L122.794 33.8831L122.813 33.8998L122.831 33.916L124.136 32.4ZM123.704 28.104L122.128 26.8727L122.122 26.8797L123.704 28.104ZM125.336 27.024L124.786 25.101L124.772 25.1052L124.757 25.1096L125.336 27.024ZM129.488 26.592L129.522 28.5917L131.488 28.5581V26.592H129.488ZM129.344 24.912L128.094 26.4737L128.162 26.528L128.234 26.5761L129.344 24.912ZM127.448 24.864L127.531 26.8623L127.556 26.8612L127.581 26.8596L127.448 24.864ZM124.328 25.128L122.349 25.4211L122.632 27.3262L124.546 27.1161L124.328 25.128ZM124.04 22.344L123.633 20.3857L121.932 20.7388L122.044 22.4728L124.04 22.344ZM126.704 21.912L126.944 23.8976L126.96 23.8956L126.977 23.8932L126.704 21.912ZM132.08 22.368L130.961 24.0257L130.975 24.0354L130.99 24.0449L132.08 22.368ZM133.328 24.024L135.254 23.4864V23.4864L133.328 24.024ZM133.592 26.64L131.592 26.6097L131.592 26.618L131.592 26.6264L133.592 26.64ZM133.568 30.168L131.568 30.1544L131.568 30.1866L131.569 30.2188L133.568 30.168ZM133.64 33V35H135.691L135.639 32.9492L133.64 33ZM129.488 30.36L130.14 32.2507L131.488 31.7859V30.36H129.488ZM129.488 28.584H131.488V26.584H129.488V28.584ZM127.328 28.776L125.914 27.3618L125.914 27.3618L127.328 28.776ZM127.136 29.136L125.22 28.5613L125.193 28.6515L125.175 28.7438L127.136 29.136ZM127.352 30.384L126.085 31.9319L126.085 31.9319L127.352 30.384ZM132.17 32.5077L131.786 30.9957L127.909 31.9803L128.293 33.4923L132.17 32.5077ZM128.143 30.4423C127.739 31.1016 127.333 31.288 126.776 31.288V35.288C128.843 35.288 130.485 34.2744 131.553 32.5337L128.143 30.4423ZM126.776 31.288C126.091 31.288 125.702 31.109 125.44 30.884L122.831 33.916C123.946 34.875 125.316 35.288 126.776 35.288V31.288ZM125.478 30.9169C125.308 30.7636 125.128 30.5021 125.128 29.856H121.128C121.128 31.3859 121.62 32.8204 122.794 33.8831L125.478 30.9169ZM125.128 29.856C125.128 29.5935 125.193 29.4481 125.285 29.3283L122.122 26.8797C121.447 27.7519 121.128 28.7745 121.128 29.856H125.128ZM125.28 29.3353C125.399 29.1828 125.578 29.0403 125.915 28.9384L124.757 25.1096C123.718 25.4237 122.809 26.0012 122.128 26.8727L125.28 29.3353ZM125.885 28.947C126.519 28.766 127.686 28.6231 129.522 28.5917L129.454 24.5923C127.546 24.6249 125.945 24.77 124.786 25.101L125.885 28.947ZM131.488 26.592C131.488 26.0472 131.476 25.5754 131.445 25.2092C131.43 25.034 131.405 24.8167 131.356 24.6033C131.332 24.4995 131.287 24.3306 131.204 24.1434C131.144 24.0098 130.94 23.5727 130.453 23.2479L128.234 26.5761C127.983 26.4084 127.824 26.2183 127.734 26.0923C127.641 25.9628 127.584 25.848 127.552 25.7751C127.489 25.6349 127.464 25.5285 127.458 25.5027C127.445 25.4453 127.45 25.446 127.459 25.5508C127.476 25.7446 127.488 26.0808 127.488 26.592H131.488ZM130.593 23.3503C130.27 23.0913 129.943 22.9876 129.8 22.947C129.625 22.8969 129.463 22.8708 129.34 22.8554C129.093 22.8246 128.828 22.816 128.576 22.816V26.816C128.66 26.816 128.726 26.8176 128.774 26.8198C128.824 26.8222 128.845 26.8247 128.844 26.8246C128.842 26.8244 128.83 26.8228 128.809 26.8188C128.788 26.815 128.751 26.8072 128.701 26.793C128.654 26.7794 128.576 26.7547 128.482 26.7122C128.392 26.6714 128.25 26.5979 128.094 26.4737L130.593 23.3503ZM128.576 22.816C128.238 22.816 127.811 22.8353 127.315 22.8684L127.581 26.8596C128.045 26.8287 128.369 26.816 128.576 26.816V22.816ZM127.365 22.8657C126.531 22.9005 125.44 22.994 124.11 23.1399L124.546 27.1161C125.84 26.974 126.829 26.8915 127.531 26.8623L127.365 22.8657ZM126.306 24.8349C126.187 24.0322 126.097 23.1596 126.036 22.2152L122.044 22.4728C122.111 23.5124 122.212 24.4958 122.349 25.4211L126.306 24.8349ZM124.446 24.3023C125.235 24.1386 126.067 24.0034 126.944 23.8976L126.464 19.9264C125.485 20.0446 124.541 20.1974 123.633 20.3857L124.446 24.3023ZM126.977 23.8932C127.838 23.7745 128.576 23.72 129.2 23.72V19.72C128.352 19.72 127.426 19.7935 126.431 19.9308L126.977 23.8932ZM129.2 23.72C130.318 23.72 130.804 23.92 130.961 24.0257L133.199 20.7103C132.075 19.952 130.642 19.72 129.2 19.72V23.72ZM130.99 24.0449C131.252 24.2154 131.35 24.3763 131.401 24.5616L135.254 23.4864C134.922 22.2957 134.188 21.3526 133.17 20.6911L130.99 24.0449ZM131.401 24.5616C131.524 24.9993 131.606 25.6631 131.592 26.6097L135.592 26.6703C135.609 25.5049 135.516 24.4247 135.254 23.4864L131.401 24.5616ZM131.592 26.6264L131.568 30.1544L135.568 30.1816L135.592 26.6536L131.592 26.6264ZM131.569 30.2188L131.641 33.0508L135.639 32.9492L135.567 30.1172L131.569 30.2188ZM133.64 31H130.232V35H133.64V31ZM128.168 32.6C128.842 32.6 129.503 32.4704 130.14 32.2507L128.836 28.4693C128.545 28.5696 128.326 28.6 128.168 28.6V32.6ZM131.488 30.36V28.584H127.488V30.36H131.488ZM129.488 26.584H129.296V30.584H129.488V26.584ZM129.296 26.584C128.681 26.584 128.146 26.6001 127.722 26.6415C127.514 26.6617 127.277 26.6931 127.047 26.7494C126.933 26.7775 126.372 26.9033 125.914 27.3618L128.742 30.1902C128.617 30.3154 128.497 30.3999 128.41 30.4537C128.322 30.5084 128.245 30.5448 128.192 30.5678C128.089 30.6119 128.016 30.6303 127.999 30.6346C127.965 30.6429 127.99 30.6343 128.11 30.6225C128.342 30.5999 128.726 30.584 129.296 30.584V26.584ZM125.914 27.3618C125.514 27.761 125.321 28.2242 125.22 28.5613L129.052 29.7107C129.046 29.73 129.027 29.7874 128.985 29.8672C128.942 29.9473 128.866 30.0658 128.742 30.1902L125.914 27.3618ZM125.175 28.7438C125.12 29.0162 125.088 29.3003 125.088 29.592H129.088C129.088 29.5957 129.088 29.5758 129.097 29.5282L125.175 28.7438ZM125.088 29.592C125.088 30.1749 125.205 31.2116 126.085 31.9319L128.618 28.8361C128.882 29.0521 129.003 29.2994 129.051 29.4455C129.096 29.5786 129.088 29.6446 129.088 29.592H125.088ZM126.085 31.9319C126.781 32.5011 127.604 32.6 128.168 32.6V28.6C128.107 28.6 128.127 28.5932 128.2 28.6126C128.276 28.6328 128.439 28.6895 128.618 28.8361L126.085 31.9319ZM142.933 21.792L142.514 23.7476L142.527 23.7505L142.541 23.7532L142.933 21.792ZM143.461 21.96H145.461V20.7994L144.453 20.2235L143.461 21.96ZM143.341 23.712L145.331 23.911L145.331 23.9071L143.341 23.712ZM143.125 25.416L142.926 27.4061L144.747 27.5882L145.09 25.7902L143.125 25.416ZM139.549 25.56L139.266 23.5801L137.549 23.8254V25.56H139.549ZM139.549 33V35H141.549V33H139.549ZM135.445 33H133.445V35H135.445V33ZM135.445 21.96V19.96H133.445V21.96H135.445ZM138.877 21.96L140.808 21.4382L140.408 19.96H138.877V21.96ZM139.357 23.736L137.426 24.2578L137.826 25.736H139.357V23.736ZM139.381 23.736V25.736H140.371L140.971 24.9493L139.381 23.736ZM140.869 22.272L142.013 23.9128V23.9128L140.869 22.272ZM142.285 23.72C142.339 23.72 142.414 23.7262 142.514 23.7476L143.352 19.8364C143.004 19.7618 142.647 19.72 142.285 19.72V23.72ZM142.541 23.7532C142.574 23.7598 142.599 23.7655 142.616 23.7698C142.633 23.7742 142.64 23.7764 142.639 23.7759C142.637 23.7754 142.622 23.7705 142.596 23.7597C142.57 23.7491 142.526 23.7291 142.469 23.6965L144.453 20.2235C144.055 19.996 143.622 19.8903 143.325 19.8308L142.541 23.7532ZM141.461 21.96C141.461 22.2051 141.43 22.7035 141.35 23.5169L145.331 23.9071C145.412 23.0885 145.461 22.4189 145.461 21.96H141.461ZM141.351 23.513C141.271 24.3112 141.206 24.8012 141.16 25.0418L145.09 25.7902C145.172 25.3588 145.251 24.7128 145.331 23.911L141.351 23.513ZM143.324 23.4259C143.051 23.3986 142.661 23.392 142.237 23.392V27.392C142.442 27.392 142.605 27.3939 142.729 27.3973C142.791 27.3989 142.838 27.4008 142.874 27.4027C142.912 27.4047 142.927 27.4062 142.926 27.4061L143.324 23.4259ZM142.237 23.392C141.158 23.392 140.165 23.4517 139.266 23.5801L139.832 27.5399C140.501 27.4443 141.299 27.392 142.237 27.392V23.392ZM137.549 25.56V33H141.549V25.56H137.549ZM139.549 31H135.445V35H139.549V31ZM137.445 33V21.96H133.445V33H137.445ZM135.445 23.96H138.877V19.96H135.445V23.96ZM136.946 22.4818L137.426 24.2578L141.288 23.2142L140.808 21.4382L136.946 22.4818ZM139.357 25.736H139.381V21.736H139.357V25.736ZM140.971 24.9493C141.332 24.476 141.683 24.1424 142.013 23.9128L139.725 20.6312C138.999 21.1376 138.358 21.78 137.791 22.5227L140.971 24.9493ZM142.013 23.9128C142.18 23.7962 142.29 23.743 142.345 23.7214C142.399 23.7006 142.373 23.72 142.285 23.72V19.72C141.292 19.72 140.418 20.1485 139.725 20.6312L142.013 23.9128ZM155.219 22.656L156.767 21.3895L156.758 21.3786L156.749 21.3677L155.219 22.656ZM155.531 23.976L153.539 24.1571L153.541 24.1795L153.543 24.2018L155.531 23.976ZM155.651 33V35H157.651V33H155.651ZM151.547 33H149.547V35H151.547V33ZM151.427 25.296L153.123 24.236L153.061 24.1374L152.988 24.0466L151.427 25.296ZM150.035 25.08L150.106 27.0787L150.212 27.0749L150.318 27.0599L150.035 25.08ZM148.643 25.392L147.9 23.535L146.643 24.0379V25.392H148.643ZM148.643 33V35H150.643V33H148.643ZM144.539 33H142.539V35H144.539V33ZM144.539 21.96V19.96H142.539V21.96H144.539ZM147.875 21.96L149.816 21.4809L149.441 19.96H147.875V21.96ZM148.331 23.808L146.389 24.2871L147.34 28.1419L149.871 25.0831L148.331 23.808ZM154.067 21.96L153.453 23.8634L153.461 23.8662L153.47 23.869L154.067 21.96ZM153.671 23.9225C153.599 23.8341 153.551 23.7564 153.521 23.7032C153.491 23.6492 153.473 23.6075 153.464 23.5844C153.447 23.5418 153.448 23.5334 153.458 23.578C153.468 23.6192 153.482 23.6872 153.496 23.7881C153.511 23.8878 153.526 24.01 153.539 24.1571L157.522 23.7949C157.486 23.395 157.433 23.0058 157.351 22.6579C157.285 22.3785 157.141 21.8472 156.767 21.3895L153.671 23.9225ZM153.543 24.2018C153.61 24.7884 153.651 25.7672 153.651 27.192H157.651C157.651 25.7368 157.611 24.5716 157.518 23.7502L153.543 24.2018ZM153.651 27.192V33H157.651V27.192H153.651ZM155.651 31H151.547V35H155.651V31ZM153.547 33V27.24H149.547V33H153.547ZM153.547 27.24V26.256H149.547V27.24H153.547ZM153.547 26.256C153.547 25.9591 153.536 25.6594 153.501 25.3839C153.477 25.1905 153.411 24.6976 153.123 24.236L149.731 26.356C149.663 26.2483 149.621 26.1549 149.596 26.0921C149.571 26.0278 149.556 25.9767 149.547 25.9455C149.531 25.8863 149.529 25.8587 149.532 25.8801C149.534 25.8975 149.538 25.9371 149.541 26.004C149.545 26.0698 149.547 26.1531 149.547 26.256H153.547ZM152.988 24.0466C152.557 23.5067 151.996 23.2839 151.631 23.1853C151.249 23.0822 150.867 23.056 150.539 23.056V27.056C150.675 27.056 150.672 27.0698 150.587 27.0467C150.518 27.0281 150.169 26.9253 149.865 26.5454L152.988 24.0466ZM150.539 23.056C150.293 23.056 150.009 23.0633 149.752 23.1001L150.318 27.0599C150.289 27.0639 150.292 27.062 150.34 27.0597C150.384 27.0576 150.449 27.056 150.539 27.056V23.056ZM149.963 23.0813C149.253 23.1067 148.562 23.2704 147.9 23.535L149.385 27.249C149.684 27.1296 149.921 27.0853 150.106 27.0787L149.963 23.0813ZM146.643 25.392V33H150.643V25.392H146.643ZM148.643 31H144.539V35H148.643V31ZM146.539 33V21.96H142.539V33H146.539ZM144.539 23.96H147.875V19.96H144.539V23.96ZM145.933 22.4391L146.389 24.2871L150.272 23.3289L149.816 21.4809L145.933 22.4391ZM149.871 25.0831C150.699 24.0834 151.536 23.72 152.459 23.72V19.72C150.181 19.72 148.267 20.7486 146.79 22.5329L149.871 25.0831ZM152.459 23.72C152.848 23.72 153.175 23.7738 153.453 23.8634L154.681 20.0566C153.967 19.8262 153.221 19.72 152.459 19.72V23.72ZM153.47 23.869C153.742 23.9539 153.75 24.0173 153.689 23.9443L156.749 21.3677C156.175 20.6867 155.415 20.2861 154.663 20.051L153.47 23.869Z" fill="black" mask="url(#path-3-outside-1_8_48)"/>
<defs>
<clipPath id="clip0_8_48">
<rect width="50" height="50" fill="white"/>
</clipPath>
</defs>
</svg>
